# xmcd
#
# Track frame offsets:
#	150
#	17518
#	30270
#	52107
#	94276
#	133730
#	175907
#	181657
#	189609
#	241255
#	265825
#	288330
#	320546
#
# Disc length: 4811 seconds
#
# Revision: 1
# Processed by: cddbd v1.5.2PL0 Copyright (c) Steve Scherf et al.
# Submitted via: audiograbber 1.83.01
#
DISCID=ae12c90d
DTITLE=Grateful Dead - 70-02-05 Fillmore West, San Francisco CA
DYEAR=1900
DGENRE=
TTITLE0=Seasons Of My Heart
TTITLE1=The Race Is On
TTITLE2=Big Boss Man
TTITLE3=Black Peter
TTITLE4=Mason's Children
TTITLE5=The Eleven
TTITLE6=Caution Jam
TTITLE7=Goodnight Jam
TTITLE8=Caution
TTITLE9=Not Fade Away
TTITLE10=Cumberland Blues
TTITLE11=Uncle John's Band
TTITLE12=Mason's Children (audience version)
EXTD=
EXTT0=
EXTT1=
EXTT2=
EXTT3=
EXTT4=
EXTT5=
EXTT6=
EXTT7=
EXTT8=
EXTT9=
EXTT10=
EXTT11=
EXTT12=
PLAYORDER=
